<svg width="142" height="38" viewBox="0 0 142 38" fill="none" xmlns="http://www.w3.org/2000/svg">
<g filter="url(#filter0_dddi_66_10163)">
<g clip-path="url(#clip0_66_10163)">
<path d="M3 14.8C3 10.3196 3 8.07937 3.87195 6.36808C4.63893 4.86278 5.86278 3.63893 7.36808 2.87195C9.07937 2 11.3196 2 15.8 2H22.2C26.6804 2 28.9206 2 30.6319 2.87195C32.1372 3.63893 33.3611 4.86278 34.1281 6.36808C35 8.07937 35 10.3196 35 14.8V21.2C35 25.6804 35 27.9206 34.1281 29.6319C33.3611 31.1372 32.1372 32.3611 30.6319 33.1281C28.9206 34 26.6804 34 22.2 34H15.8C11.3196 34 9.07937 34 7.36808 33.1281C5.86278 32.3611 4.63893 31.1372 3.87195 29.6319C3 27.9206 3 25.6804 3 21.2V14.8Z" fill="white"/>
<path d="M3 14.8C3 10.3196 3 8.07937 3.87195 6.36808C4.63893 4.86278 5.86278 3.63893 7.36808 2.87195C9.07937 2 11.3196 2 15.8 2H22.2C26.6804 2 28.9206 2 30.6319 2.87195C32.1372 3.63893 33.3611 4.86278 34.1281 6.36808C35 8.07937 35 10.3196 35 14.8V21.2C35 25.6804 35 27.9206 34.1281 29.6319C33.3611 31.1372 32.1372 32.3611 30.6319 33.1281C28.9206 34 26.6804 34 22.2 34H15.8C11.3196 34 9.07937 34 7.36808 33.1281C5.86278 32.3611 4.63893 31.1372 3.87195 29.6319C3 27.9206 3 25.6804 3 21.2V14.8Z" fill="url(#paint0_linear_66_10163)" fill-opacity="0.2"/>
<g opacity="0.14" clip-path="url(#clip1_66_10163)">
<path fill-rule="evenodd" clip-rule="evenodd" d="M18.9612 2H19.0388V3.96123C20.8929 3.96625 22.6625 4.33069 24.2816 4.98855V2H24.3592V5.02038C25.7339 5.58859 26.9986 6.36882 28.1126 7.32031H29.602V2H29.6796V7.32031H35V7.39798H29.6796V8.88728C30.6311 10.0013 31.4113 11.266 31.9796 12.6406H35V12.7183H32.0114C32.6693 14.3373 33.0337 16.1069 33.0388 17.9609H35V18.0386H33.0388C33.0338 19.8927 32.6694 21.6622 32.0116 23.2812H35V23.3589H31.9798C31.4115 24.7337 30.6312 25.9986 29.6796 27.1128V28.6016H35V28.6792H29.6796V34H29.602V28.6792H28.1132C26.999 29.6309 25.7341 30.4113 24.3592 30.9797V34H24.2816V31.0115C22.6625 31.6693 20.8929 32.0338 19.0388 32.0388V34H18.9612V32.0388C17.1071 32.0338 15.3375 31.6693 13.7184 31.0115V34H13.6408V30.9797C12.2659 30.4113 11.001 29.6309 9.88678 28.6792H8.39804V34H8.32037V28.6792H3V28.6016H8.32037V27.1128C7.36877 25.9986 6.58847 24.7337 6.02023 23.3589H3V23.2812H5.9884C5.3306 21.6622 4.96621 19.8927 4.96122 18.0386H3V17.9609H4.96122C4.96627 16.1069 5.33073 14.3373 5.9886 12.7183H3V12.6406H6.02044C6.58866 11.266 7.36889 10.0013 8.32037 8.88728V7.39798H3V7.32031H8.32037V2H8.39804V7.32031H9.88736C11.0014 6.36882 12.2661 5.58859 13.6408 5.02038V2H13.7184V4.98855C15.3375 4.33069 17.1071 3.96626 18.9612 3.96123V2ZM18.9612 4.0389C17.1062 4.04396 15.3364 4.41075 13.7184 5.07245V7.32031H18.9612V4.0389ZM13.6408 5.10449C12.3137 5.65662 11.0902 6.40763 10.0074 7.32031H13.6408V5.10449ZM9.79719 7.39798H8.39804V8.79711C8.8311 8.29865 9.29872 7.83103 9.79719 7.39798ZM8.39804 8.91598C8.86452 8.37206 9.37213 7.86446 9.91606 7.39798H13.6408V12.6406H8.39804V8.91598ZM8.32037 9.00733C7.4077 10.0901 6.65669 11.3136 6.10454 12.6406H8.32037V9.00733ZM6.0725 12.7183C5.41078 14.3362 5.04397 16.106 5.03889 17.9609H8.32037V12.7183H6.0725ZM5.03889 18.0386C5.04391 19.8935 5.41065 21.6633 6.0723 23.2812H8.32037V18.0386H5.03889ZM6.10434 23.3589C6.6565 24.6861 7.40759 25.9098 8.32037 26.9927V23.3589H6.10434ZM8.39804 27.2029V28.6016H9.79662C9.29837 28.1686 8.83093 27.7012 8.39804 27.2029ZM9.91548 28.6016C9.37178 28.1352 8.86436 27.6278 8.39804 27.0841V23.3589H13.6408V28.6016H9.91548ZM10.0068 28.6792C11.0898 29.5921 12.3135 30.3433 13.6408 30.8955V28.6792H10.0068ZM13.7184 30.9276C15.3364 31.5893 17.1062 31.9561 18.9612 31.9611V28.6792H13.7184V30.9276ZM19.0388 31.9611C20.8937 31.9561 22.6636 31.5893 24.2816 30.9276V28.6792H19.0388V31.9611ZM24.3592 30.8955C25.6865 30.3433 26.9102 29.5921 27.9932 28.6792H24.3592V30.8955ZM28.2034 28.6016H29.602V27.2029C29.1691 27.7012 28.7016 28.1686 28.2034 28.6016ZM29.602 27.0841C29.1356 27.6278 28.6282 28.1352 28.0845 28.6016H24.3592V23.3589H29.602V27.0841ZM29.6796 26.9927C30.5924 25.9098 31.3435 24.6861 31.8957 23.3589H29.6796V26.9927ZM31.9277 23.2812C32.5894 21.6633 32.9561 19.8935 32.9611 18.0386H29.6796V23.2812H31.9277ZM32.9611 17.9609C32.956 16.1061 32.5892 14.3362 31.9275 12.7183H29.6796V17.9609H32.9611ZM31.8955 12.6406C31.3433 11.3136 30.5923 10.0901 29.6796 9.00733V12.6406H31.8955ZM29.602 8.79711V7.39798H28.2028C28.7013 7.83103 29.1689 8.29865 29.602 8.79711ZM28.0839 7.39798C28.6279 7.86446 29.1355 8.37206 29.602 8.91598V12.6406H24.3592V7.39798H28.0839ZM27.9926 7.32031C26.9098 6.40763 25.6863 5.65662 24.3592 5.10449V7.32031H27.9926ZM24.2816 5.07245C22.6636 4.41074 20.8937 4.04395 19.0388 4.0389V7.32031H24.2816V5.07245ZM13.7184 7.39798H18.9612V12.6406H13.7184V7.39798ZM24.2816 7.39798H19.0388V12.6406H24.2816V7.39798ZM13.6408 23.2812H8.39804V18.0386H13.6408V23.2812ZM13.7184 23.3589V28.6016H18.9612V23.3589H13.7184ZM18.9612 23.2812H13.7184V18.0386H18.9612V23.2812ZM19.0388 23.3589V28.6016H24.2816V23.3589H19.0388ZM24.2816 23.2812H19.0388V18.0386H24.2816V23.2812ZM29.602 23.2812H24.3592V18.0386H29.602V23.2812ZM13.7184 12.7183H18.9612V17.9609H13.7184V12.7183ZM8.39804 12.7183L13.6408 12.7183V17.9609H8.39804V12.7183ZM24.2816 12.7183H19.0388V17.9609H24.2816V12.7183ZM24.3592 17.9609V12.7183L29.602 12.7183V17.9609H24.3592Z" fill="#0A0D12"/>
</g>
<g filter="url(#filter1_dd_66_10163)">
<rect x="11" y="10" width="16" height="16" rx="8" fill="url(#paint1_linear_66_10163)"/>
<rect x="11" y="10" width="16" height="16" rx="8" fill="url(#paint2_radial_66_10163)" fill-opacity="0.08"/>
<rect x="11" y="10" width="16" height="16" rx="8" fill="url(#paint3_radial_66_10163)" fill-opacity="0.18"/>
<rect x="11" y="10" width="16" height="16" rx="8" fill="url(#paint4_radial_66_10163)" fill-opacity="0.05"/>
<path d="M23.8 14.041C23.8 15.3894 21.651 14.5293 19 14.5293C16.349 14.5293 14.2 15.3894 14.2 14.041C14.2 12.6927 16.349 11.5996 19 11.5996C21.651 11.5996 23.8 12.6927 23.8 14.041Z" fill="url(#paint5_linear_66_10163)" fill-opacity="0.4"/>
</g>
<path d="M3 18H35V21.2C35 25.6804 35 27.9206 34.1281 29.6319C33.3611 31.1372 32.1372 32.3611 30.6319 33.1281C28.9206 34 26.6804 34 22.2 34H15.8C11.3196 34 9.07937 34 7.36808 33.1281C5.86278 32.3611 4.63893 31.1372 3.87195 29.6319C3 27.9206 3 25.6804 3 21.2V18Z" fill="white" fill-opacity="0.2"/>
</g>
<path d="M15.7998 2.09961H22.2002C24.442 2.09961 26.1173 2.1004 27.4463 2.20898C28.7741 2.31747 29.7477 2.53335 30.5869 2.96094C32.0732 3.7183 33.2817 4.92681 34.0391 6.41309C34.4666 7.25227 34.6825 8.22592 34.791 9.55371C34.8996 10.8827 34.9004 12.558 34.9004 14.7998V21.2002C34.9004 23.442 34.8996 25.1173 34.791 26.4463C34.6825 27.7741 34.4666 28.7477 34.0391 29.5869C33.2817 31.0732 32.0732 32.2817 30.5869 33.0391C29.7477 33.4666 28.7741 33.6825 27.4463 33.791C26.1173 33.8996 24.442 33.9004 22.2002 33.9004H15.7998C13.558 33.9004 11.8827 33.8996 10.5537 33.791C9.22592 33.6825 8.25227 33.4666 7.41309 33.0391C5.92681 32.2817 4.7183 31.0732 3.96094 29.5869C3.53335 28.7477 3.31747 27.7741 3.20898 26.4463C3.1004 25.1173 3.09961 23.442 3.09961 21.2002V14.7998C3.09961 12.558 3.1004 10.8827 3.20898 9.55371C3.31747 8.22592 3.53335 7.25227 3.96094 6.41309C4.7183 4.92681 5.92681 3.7183 7.41309 2.96094C8.25227 2.53335 9.22592 2.31747 10.5537 2.20898C11.8827 2.1004 13.558 2.09961 15.7998 2.09961Z" stroke="#0A0D12" stroke-opacity="0.12" stroke-width="0.2"/>
</g>
<path d="M78.9101 12.2367C79.2321 12.535 79.6179 12.6841 80.0678 12.6841C80.5176 12.6841 80.9011 12.535 81.2183 12.2367C81.5403 11.9337 81.7013 11.5714 81.7013 11.15C81.7013 10.7334 81.5403 10.3759 81.2183 10.0776C80.9011 9.77456 80.5176 9.62305 80.0678 9.62305C79.6179 9.62305 79.2321 9.77456 78.9101 10.0776C78.5928 10.3759 78.4342 10.7334 78.4342 11.15C78.4342 11.5714 78.5928 11.9337 78.9101 12.2367Z" fill="#181D27"/>
<path d="M56.2997 22.6841C56.8063 21.8887 57.0597 20.9606 57.0597 19.9V10.454H53.9844V19.6373C53.9844 20.1912 53.8613 20.6837 53.6151 21.1145C53.3736 21.5454 53.0303 21.8839 52.5852 22.1301C52.1449 22.3764 51.6264 22.4995 51.0298 22.4995C50.438 22.4995 49.9195 22.3764 49.4744 22.1301C49.0294 21.8839 48.6837 21.5454 48.4375 21.1145C48.196 20.6837 48.0753 20.1912 48.0753 19.6373V10.454H45V19.9C45 20.9606 45.2509 21.8887 45.7528 22.6841C46.2547 23.4796 46.9579 24.0998 47.8622 24.5449C48.7666 24.9853 49.8224 25.2054 51.0298 25.2054C52.2325 25.2054 53.286 24.9853 54.1903 24.5449C55.0947 24.0998 55.7978 23.4796 56.2997 22.6841Z" fill="#181D27"/>
<path d="M63.3589 14.5094C62.7907 14.8787 62.3859 15.3806 62.1444 16.0151H62.0165V14.0904H59.133V24.9995H62.1586V18.6926C62.1633 18.2239 62.2509 17.8238 62.4214 17.4924C62.5966 17.1562 62.838 16.9005 63.1458 16.7253C63.4583 16.5501 63.8182 16.4625 64.2254 16.4625C64.8314 16.4625 65.3073 16.6519 65.6529 17.0307C65.9986 17.4048 66.169 17.9256 66.1643 18.5932V24.9995H69.1898V18.0534C69.1898 17.2059 69.0336 16.4767 68.7211 15.8659C68.4086 15.2504 67.9706 14.7769 67.4072 14.4455C66.8437 14.1141 66.1832 13.9483 65.4256 13.9483C64.616 13.9483 63.9271 14.1354 63.3589 14.5094Z" fill="#181D27"/>
<path d="M72.3463 23.8205C72.0433 23.3517 71.8941 22.7599 71.8989 22.0449V16.3631H70.4074V14.0904H71.8989V11.4767H74.9244V14.0904H76.977V16.3631H74.9244V21.6472C74.9244 21.9266 74.967 22.1444 75.0523 22.3006C75.1375 22.4521 75.2559 22.5587 75.4074 22.6202C75.5636 22.6818 75.7436 22.7125 75.9472 22.7125C76.0892 22.7125 76.2313 22.7007 76.3733 22.677C76.5153 22.6486 76.6242 22.6273 76.7 22.6131L77.1759 24.8645C77.0243 24.9119 76.8113 24.9663 76.5366 25.0279C76.262 25.0942 75.9282 25.1344 75.5352 25.1486C74.8061 25.177 74.1669 25.08 73.6176 24.8574C73.0731 24.6349 72.6493 24.2892 72.3463 23.8205Z" fill="#181D27"/>
<path d="M84.769 23.8205C84.4659 23.3517 84.3168 22.7599 84.3215 22.0449V16.3631H82.83V14.0904H84.3215V11.4767H87.3471V14.0904H89.3996V16.3631H87.3471V21.6472C87.3471 21.9266 87.3897 22.1444 87.4749 22.3006C87.5602 22.4521 87.6785 22.5587 87.83 22.6202C87.9863 22.6818 88.1662 22.7125 88.3698 22.7125C88.5119 22.7125 88.6539 22.7007 88.796 22.677C88.938 22.6486 89.0469 22.6273 89.1227 22.6131L89.5985 24.8645C89.447 24.9119 89.2339 24.9663 88.9593 25.0279C88.6847 25.0942 88.3509 25.1344 87.9579 25.1486C87.2287 25.177 86.5895 25.08 86.0403 24.8574C85.4958 24.6349 85.072 24.2892 84.769 23.8205Z" fill="#181D27"/>
<path fill-rule="evenodd" clip-rule="evenodd" d="M101.226 25.2125C100.104 25.2125 99.1376 24.9853 98.328 24.5307C97.5231 24.0714 96.9028 23.4228 96.4672 22.5847C96.0316 21.7419 95.8138 20.7452 95.8138 19.5946C95.8138 18.4725 96.0316 17.4876 96.4672 16.6401C96.9028 15.7926 97.516 15.132 98.3067 14.6586C99.1021 14.1851 100.035 13.9483 101.105 13.9483C101.825 13.9483 102.495 14.0643 103.115 14.2963C103.74 14.5236 104.284 14.8669 104.748 15.3262C105.217 15.7855 105.582 16.3631 105.842 17.0591C106.103 17.7504 106.233 18.5601 106.233 19.4881V20.3191H98.8038V20.3262C98.8038 20.8659 98.9033 21.3323 99.1021 21.7253C99.3057 22.1183 99.5922 22.4213 99.9615 22.6344C100.331 22.8475 100.769 22.954 101.275 22.954C101.612 22.954 101.919 22.9067 102.199 22.812C102.478 22.7173 102.717 22.5752 102.916 22.3858C103.115 22.1964 103.266 21.9644 103.371 21.6898L106.169 21.8745C106.027 22.5468 105.736 23.1339 105.295 23.6358C104.86 24.133 104.296 24.5212 103.605 24.8006C102.918 25.0752 102.125 25.2125 101.226 25.2125ZM99.1092 17.3716C98.9258 17.6949 98.8249 18.0523 98.8067 18.4441H103.385C103.385 18.0085 103.29 17.6226 103.101 17.2864C102.911 16.9502 102.649 16.6874 102.312 16.498C101.981 16.3039 101.595 16.2069 101.155 16.2069C100.695 16.2069 100.288 16.3134 99.9331 16.5265C99.5827 16.7348 99.3081 17.0165 99.1092 17.3716Z" fill="#181D27"/>
<path fill-rule="evenodd" clip-rule="evenodd" d="M109.576 24.5378C110.248 24.964 110.999 25.177 111.827 25.177C112.414 25.177 112.911 25.08 113.319 24.8858C113.731 24.6917 114.064 24.4479 114.32 24.1543C114.58 23.856 114.782 23.5553 114.924 23.2523H115.052V24.9995H118.035V10.454H115.016V15.9228H114.924C114.791 15.6292 114.597 15.3309 114.341 15.0279C114.09 14.7201 113.759 14.4644 113.347 14.2608C112.94 14.0525 112.431 13.9483 111.82 13.9483C111.02 13.9483 110.284 14.1567 109.611 14.5733C108.944 14.9853 108.409 15.6079 108.006 16.4412C107.604 17.2698 107.402 18.3091 107.402 19.5591C107.402 20.776 107.597 21.8034 107.985 22.6415C108.378 23.4748 108.908 24.1069 109.576 24.5378ZM114.022 22.3716C113.686 22.6368 113.274 22.7694 112.786 22.7694C112.289 22.7694 111.87 22.6344 111.529 22.3645C111.193 22.0899 110.935 21.7111 110.755 21.2282C110.58 20.7405 110.492 20.1794 110.492 19.5449C110.492 18.9152 110.58 18.3612 110.755 17.883C110.93 17.4048 111.188 17.0307 111.529 16.7608C111.87 16.4909 112.289 16.356 112.786 16.356C113.274 16.356 113.688 16.4862 114.029 16.7466C114.37 17.007 114.63 17.3764 114.81 17.8546C114.99 18.3328 115.08 18.8962 115.08 19.5449C115.08 20.1936 114.988 20.7594 114.803 21.2424C114.623 21.7253 114.363 22.1017 114.022 22.3716Z" fill="#181D27"/>
<path d="M133.023 21.1145C133.269 20.6837 133.392 20.1912 133.392 19.6373V10.454H136.467V19.9C136.467 20.9606 136.214 21.8887 135.708 22.6841C135.206 23.4796 134.503 24.0998 133.598 24.5449C132.694 24.9853 131.64 25.2054 130.438 25.2054C129.23 25.2054 128.174 24.9853 127.27 24.5449C126.366 24.0998 125.663 23.4796 125.161 22.6841C124.659 21.8887 124.408 20.9606 124.408 19.9V10.454H127.483V19.6373C127.483 20.1912 127.604 20.6837 127.845 21.1145C128.092 21.5454 128.437 21.8839 128.882 22.1301C129.327 22.3764 129.846 22.4995 130.438 22.4995C131.034 22.4995 131.553 22.3764 131.993 22.1301C132.438 21.8839 132.781 21.5454 133.023 21.1145Z" fill="#181D27"/>
<path d="M78.5479 14.0904V24.9995H81.5734V14.0904H78.5479Z" fill="#181D27"/>
<path d="M94.2305 24.9995V10.454H91.2049V24.9995H94.2305Z" fill="#181D27"/>
<path d="M141.673 24.9995V10.454H138.598V24.9995H141.673Z" fill="#181D27"/>
<defs>
<filter id="filter0_dddi_66_10163" x="0" y="0" width="38" height="38" filterUnits="userSpaceOnUse" color-interpolation-filters="sRGB">
<feFlood flood-opacity="0" result="BackgroundImageFix"/>
<feColorMatrix in="SourceAlpha" type="matrix" values="0 0 0 0 0 0 0 0 0 0 0 0 0 0 0 0 0 0 127 0" result="hardAlpha"/>
<feOffset dy="1"/>
<feGaussianBlur stdDeviation="1"/>
<feColorMatrix type="matrix" values="0 0 0 0 0.0392157 0 0 0 0 0.0509804 0 0 0 0 0.0705882 0 0 0 0.06 0"/>
<feBlend mode="normal" in2="BackgroundImageFix" result="effect1_dropShadow_66_10163"/>
<feColorMatrix in="SourceAlpha" type="matrix" values="0 0 0 0 0 0 0 0 0 0 0 0 0 0 0 0 0 0 127 0" result="hardAlpha"/>
<feOffset dy="1"/>
<feGaussianBlur stdDeviation="1.5"/>
<feColorMatrix type="matrix" values="0 0 0 0 0.0392157 0 0 0 0 0.0509804 0 0 0 0 0.0705882 0 0 0 0.1 0"/>
<feBlend mode="normal" in2="effect1_dropShadow_66_10163" result="effect2_dropShadow_66_10163"/>
<feColorMatrix in="SourceAlpha" type="matrix" values="0 0 0 0 0 0 0 0 0 0 0 0 0 0 0 0 0 0 127 0" result="hardAlpha"/>
<feMorphology radius="0.5" operator="erode" in="SourceAlpha" result="effect3_dropShadow_66_10163"/>
<feOffset dy="1"/>
<feGaussianBlur stdDeviation="0.5"/>
<feComposite in2="hardAlpha" operator="out"/>
<feColorMatrix type="matrix" values="0 0 0 0 0.0392157 0 0 0 0 0.0509804 0 0 0 0 0.0705882 0 0 0 0.13 0"/>
<feBlend mode="normal" in2="effect2_dropShadow_66_10163" result="effect3_dropShadow_66_10163"/>
<feBlend mode="normal" in="SourceGraphic" in2="effect3_dropShadow_66_10163" result="shape"/>
<feColorMatrix in="SourceAlpha" type="matrix" values="0 0 0 0 0 0 0 0 0 0 0 0 0 0 0 0 0 0 127 0" result="hardAlpha"/>
<feOffset dy="-0.5"/>
<feGaussianBlur stdDeviation="0.25"/>
<feComposite in2="hardAlpha" operator="arithmetic" k2="-1" k3="1"/>
<feColorMatrix type="matrix" values="0 0 0 0 0.0392157 0 0 0 0 0.0509804 0 0 0 0 0.0705882 0 0 0 0.1 0"/>
<feBlend mode="normal" in2="shape" result="effect4_innerShadow_66_10163"/>
</filter>
<filter id="filter1_dd_66_10163" x="8" y="8" width="22" height="22" filterUnits="userSpaceOnUse" color-interpolation-filters="sRGB">
<feFlood flood-opacity="0" result="BackgroundImageFix"/>
<feColorMatrix in="SourceAlpha" type="matrix" values="0 0 0 0 0 0 0 0 0 0 0 0 0 0 0 0 0 0 127 0" result="hardAlpha"/>
<feOffset dy="1"/>
<feGaussianBlur stdDeviation="1"/>
<feColorMatrix type="matrix" values="0 0 0 0 0.0392157 0 0 0 0 0.0509804 0 0 0 0 0.0705882 0 0 0 0.06 0"/>
<feBlend mode="normal" in2="BackgroundImageFix" result="effect1_dropShadow_66_10163"/>
<feColorMatrix in="SourceAlpha" type="matrix" values="0 0 0 0 0 0 0 0 0 0 0 0 0 0 0 0 0 0 127 0" result="hardAlpha"/>
<feOffset dy="1"/>
<feGaussianBlur stdDeviation="1.5"/>
<feColorMatrix type="matrix" values="0 0 0 0 0.0392157 0 0 0 0 0.0509804 0 0 0 0 0.0705882 0 0 0 0.1 0"/>
<feBlend mode="normal" in2="effect1_dropShadow_66_10163" result="effect2_dropShadow_66_10163"/>
<feBlend mode="normal" in="SourceGraphic" in2="effect2_dropShadow_66_10163" result="shape"/>
</filter>
<linearGradient id="paint0_linear_66_10163" x1="19" y1="2" x2="19" y2="34" gradientUnits="userSpaceOnUse">
<stop stop-color="white"/>
<stop offset="1" stop-color="#0A0D12"/>
</linearGradient>
<linearGradient id="paint1_linear_66_10163" x1="15" y1="26" x2="23" y2="10" gradientUnits="userSpaceOnUse">
<stop stop-color="#53389E"/>
<stop offset="1" stop-color="#6941C6"/>
</linearGradient>
<radialGradient id="paint2_radial_66_10163" cx="0" cy="0" r="1" gradientUnits="userSpaceOnUse" gradientTransform="translate(19 10) rotate(90) scale(12)">
<stop stop-color="white" stop-opacity="0"/>
<stop offset="0.5" stop-color="white" stop-opacity="0"/>
<stop offset="0.99" stop-color="white"/>
<stop offset="1" stop-color="white" stop-opacity="0"/>
</radialGradient>
<radialGradient id="paint3_radial_66_10163" cx="0" cy="0" r="1" gradientUnits="userSpaceOnUse" gradientTransform="translate(19 18) rotate(90) scale(8)">
<stop offset="0.746599" stop-color="white" stop-opacity="0"/>
<stop offset="1" stop-color="white"/>
</radialGradient>
<radialGradient id="paint4_radial_66_10163" cx="0" cy="0" r="1" gradientUnits="userSpaceOnUse" gradientTransform="translate(19 14.6) rotate(90) scale(7)">
<stop stop-color="white"/>
<stop offset="1" stop-color="white" stop-opacity="0"/>
</radialGradient>
<linearGradient id="paint5_linear_66_10163" x1="19" y1="11.5996" x2="19" y2="14.7996" gradientUnits="userSpaceOnUse">
<stop stop-color="white"/>
<stop offset="1" stop-color="white" stop-opacity="0.1"/>
</linearGradient>
<clipPath id="clip0_66_10163">
<path d="M3 14.8C3 10.3196 3 8.07937 3.87195 6.36808C4.63893 4.86278 5.86278 3.63893 7.36808 2.87195C9.07937 2 11.3196 2 15.8 2H22.2C26.6804 2 28.9206 2 30.6319 2.87195C32.1372 3.63893 33.3611 4.86278 34.1281 6.36808C35 8.07937 35 10.3196 35 14.8V21.2C35 25.6804 35 27.9206 34.1281 29.6319C33.3611 31.1372 32.1372 32.3611 30.6319 33.1281C28.9206 34 26.6804 34 22.2 34H15.8C11.3196 34 9.07937 34 7.36808 33.1281C5.86278 32.3611 4.63893 31.1372 3.87195 29.6319C3 27.9206 3 25.6804 3 21.2V14.8Z" fill="white"/>
</clipPath>
<clipPath id="clip1_66_10163">
<rect width="32" height="32" fill="white" transform="translate(3 2)"/>
</clipPath>
</defs>
</svg>
